<?xml version="1.0" encoding="UTF-8"?>
<svg xmlns="http://www.w3.org/2000/svg" width="103" height="50" viewBox="0 0 103 50" fill="none">
  <path d="M102.513 0.931733C102.245 0.664112 101.857 0.50354 101.456 0.50354H74.1185C73.3291 0.50354 72.6868 1.0923 72.6868 1.82826V48.5949C72.6868 49.3175 73.3291 49.9197 74.1185 49.9197H75.2559C75.363 49.9197 75.4566 49.9197 75.5503 49.933C75.644 49.933 75.7243 49.933 75.8179 49.933C76.0989 49.933 76.3264 49.9063 76.5004 49.7323C76.6342 49.6119 76.6877 49.4246 76.6877 49.1971V4.95942C76.6877 4.51785 77.0891 4.16994 77.5976 4.16994H101.443C102.232 4.16994 102.874 3.58118 102.874 2.84522V1.81488C102.888 1.49374 102.754 1.17259 102.513 0.931733Z" fill="white"></path>
  <path d="M32.1556 9.42863C29.1583 3.51422 23.739 0.383057 16.4998 0.383057C5.86192 0.383057 1.90114 8.11729 1.90114 12.988C1.90114 20.6285 9.16704 23.6527 15.5632 26.3289C21.879 28.9649 27.3251 31.2397 27.3251 36.9935C27.3251 43.015 21.7452 45.7715 16.5534 45.7715C7.9226 45.7715 4.95201 40.1515 3.94844 36.8062C3.74772 36.1505 3.02515 35.7357 2.30257 35.8695L1.1518 36.0836C0.750372 36.1639 0.389085 36.3914 0.188369 36.7259C0.00103494 37.0203 -0.0524891 37.3682 0.054559 37.7027C1.09828 41.3156 3.15896 44.3129 6.00911 46.3335C8.85927 48.3674 12.5123 49.4379 16.5534 49.4379C20.3268 49.4379 24.0066 48.2871 26.6694 46.2933C29.7203 44.0052 31.326 40.7937 31.326 37.0069C31.326 28.898 23.8326 25.7802 17.209 23.0104C11.134 20.468 5.88868 18.2869 5.88868 13.0014C5.88868 10.5125 7.78879 4.06284 16.4731 4.06284C22.1868 4.06284 26.1074 6.31085 28.4491 10.9273C28.7702 11.5562 29.5597 11.8506 30.2555 11.5964L31.3394 11.2083C31.7274 11.0745 32.0218 10.7935 32.169 10.4322C32.3296 10.0977 32.3162 9.73639 32.1556 9.42863Z" fill="white"></path>
  <path d="M64.7786 34.9865C64.7518 34.4245 64.4976 33.916 64.0827 33.5413C63.2264 32.7786 61.9016 32.8589 61.1255 33.7153C58.6501 36.5119 55.0773 38.1043 51.3306 38.1043C44.1049 38.1043 38.2172 32.23 38.2172 24.9909C38.2172 17.7651 44.0915 11.8775 51.3306 11.8775C54.2745 11.8775 57.1781 12.8944 59.4931 14.741C60.3896 15.4636 61.7143 15.303 62.4369 14.4065C63.1595 13.51 62.9989 12.1852 62.1024 11.4627C59.0381 9.02731 55.2245 7.68921 51.3306 7.68921C41.8034 7.68921 34.0424 15.4502 34.0424 24.9775C34.0424 34.5048 41.8034 42.2658 51.3306 42.2658C56.2682 42.2658 60.9784 40.1516 64.2567 36.4718C64.6314 36.0837 64.8053 35.5485 64.7786 34.9865Z" fill="white"></path>
  <path d="M76.2996 23.626C76.1122 20.254 75.2692 17.0158 73.7973 14.0184C72.379 11.1148 70.4253 8.5456 68.0034 6.37787C65.5814 4.21015 62.8115 2.56428 59.774 1.46704C56.6161 0.329651 53.311 -0.138685 49.939 0.0352681C45.3894 0.289507 41.0138 1.76142 37.2671 4.31719C36.2903 4.98625 36.0361 6.32435 36.7051 7.30116C37.3742 8.27798 38.7123 8.53222 39.6891 7.86317C42.7935 5.76235 46.4198 4.53129 50.1798 4.31719C55.7062 4.00943 61.0185 5.86939 65.1398 9.56256C69.2612 13.2557 71.6965 18.3271 72.0043 23.8535C72.312 29.3798 70.4521 34.6921 66.7589 38.8135C63.0658 42.9348 57.9944 45.3702 52.468 45.6779C46.9416 45.9857 41.6294 44.1257 37.508 40.4326C33.3867 36.7394 30.9513 31.668 30.6435 26.1416C30.4964 23.4788 30.8576 20.8428 31.7006 18.3405C32.0887 17.2165 31.4865 15.9988 30.3625 15.6108C29.2385 15.2227 28.0209 15.8249 27.6328 16.9489C26.6025 19.973 26.1743 23.1443 26.3482 26.3691C26.5356 29.7411 27.3786 32.9793 28.8505 35.9767C30.2689 38.8804 32.2225 41.4495 34.6445 43.6173C37.0664 45.785 39.8363 47.4308 42.8738 48.5281C45.5901 49.5049 48.4135 50 51.2905 50C51.7588 50 52.2271 49.9866 52.7088 49.9599C56.0809 49.7725 59.3191 48.9295 62.3164 47.4576C65.2201 46.0392 67.7893 44.0856 69.957 41.6636C72.1247 39.2417 73.7706 36.4718 74.8678 33.4343C76.0052 30.3031 76.4869 26.998 76.2996 23.626Z" fill="white"></path>
  <path d="M99.8369 20.5618C98.6995 19.3842 97.2008 18.6884 95.6218 18.6082C93.3471 18.4877 91.1793 19.5983 89.9349 21.4984C88.9313 23.0373 87.1517 23.9606 85.1579 23.9606H61.9151C59.9213 23.9606 58.1416 23.0373 57.138 21.4984C55.8936 19.585 53.7125 18.4743 51.4511 18.6082C49.8721 18.6884 48.3735 19.3842 47.2361 20.5618C46.0987 21.7393 45.4564 23.2647 45.4296 24.8437C45.4029 26.5699 46.0452 28.2023 47.2495 29.4334C48.4537 30.6644 50.0729 31.3469 51.799 31.3469C53.7125 31.3469 55.5055 30.4905 56.7232 29.0052C57.6733 27.8411 59.1719 27.172 60.8312 27.172H86.2551C87.9144 27.172 89.3997 27.8411 90.3497 29.0052C91.5674 30.4905 93.3605 31.3469 95.2739 31.3469C97.0001 31.3469 98.6192 30.6644 99.8235 29.4334C101.028 28.2023 101.683 26.5699 101.643 24.8437C101.603 23.2647 100.961 21.7393 99.8369 20.5618ZM95.2606 28.1354C93.521 28.1354 92.1026 26.717 92.1026 24.9775C92.1026 23.238 93.521 21.8196 95.2606 21.8196C97.0001 21.8196 98.4185 23.238 98.4185 24.9775C98.4319 26.717 97.0135 28.1354 95.2606 28.1354ZM54.9569 24.9775C54.9569 26.717 53.5385 28.1354 51.799 28.1354C50.0595 28.1354 48.6411 26.717 48.6411 24.9775C48.6411 23.238 50.0595 21.8196 51.799 21.8196C53.5385 21.8062 54.9569 23.2246 54.9569 24.9775Z" fill="white"></path>
</svg>
